<?xml version="1.0" encoding="iso-8859-1"?>
<!-- Generator: Adobe Illustrator 16.0.0, SVG Export Plug-In . SVG Version: 6.00 Build 0)  -->
<!DOCTYPE svg PUBLIC "-//W3C//DTD SVG 1.1//EN" "http://www.w3.org/Graphics/SVG/1.1/DTD/svg11.dtd">
<svg version="1.1" xmlns="http://www.w3.org/2000/svg" xmlns:xlink="http://www.w3.org/1999/xlink" x="0px" y="0px" width="86.25px"
	 height="86px" viewBox="0 0 86.25 86" style="enable-background:new 0 0 86.25 86;" xml:space="preserve">
<g id="Layer_1">
</g>
<g id="Layer_2" style="display:none;">
	<path style="fill:none;stroke:#000000;stroke-width:2;stroke-miterlimit:10;" d="M59.681,44.619l3.51-50"/>
	<path style="display:inline;fill:none;stroke:#000000;stroke-width:2;stroke-miterlimit:10;" d="M80.333,28.542"/>
	<polyline style="display:inline;fill:none;stroke:#000000;stroke-width:2;stroke-linecap:square;stroke-miterlimit:10;" points="
		93.239,43.555 93.239,55.522 107.27,55.522 107.27,41.684 107.27,21.522 97.125,21.522 	"/>
	<polyline style="display:inline;fill:none;stroke:#000000;stroke-width:2;stroke-linecap:square;stroke-miterlimit:10;" points="
		113.263,55.531 113.263,37.373 113.263,21.512 127.316,21.532 127.316,35.579 117.25,35.579 	"/>
	
		<rect x="87.261" y="15.559" style="display:inline;fill:none;stroke:#000000;stroke-width:2;stroke-miterlimit:10;" width="46" height="46"/>
</g>
<g id="Layer_3">
	<path d="M26.081,75.167c-0.518,0-1.037-0.027-1.559-0.082c-3.848-0.404-7.311-2.267-9.751-5.244
		c-2.445-2.984-3.571-6.73-3.17-10.547l0.151-1.589l4.036,0.019l-0.209,1.989c-0.289,2.746,0.522,5.442,2.285,7.593
		c1.769,2.158,4.281,3.507,7.075,3.801c2.789,0.293,5.531-0.504,7.709-2.247c2.172-1.737,3.526-4.207,3.814-6.952l3.817-36.313
		l3.985,0.011l-3.824,36.72c-0.401,3.817-2.281,7.247-5.294,9.657C32.551,74.063,29.378,75.167,26.081,75.167z"/>
	<path d="M47.407,60.708l-4.094-0.017l3.911-36.531c0.836-7.951,7.971-13.738,15.937-12.906c7.951,0.836,13.741,7.985,12.906,15.937
		c-0.838,7.952-7.993,13.743-15.938,12.905c-1.219-0.127-1.359-0.102-2.602-0.42l0.437-4.164c0.828,0.309,1.697,0.513,2.582,0.605
		c5.74,0.599,10.937-3.586,11.543-9.345c0.604-5.757-3.588-10.934-9.346-11.54c-5.757-0.604-10.935,3.587-11.54,9.345L47.407,60.708
		z"/>
	<rect x="5.788" y="5.09" style="fill:none;stroke:#000000;stroke-width:4;stroke-miterlimit:10;" width="76.34" height="76.34"/>
</g>
</svg>
